PathFileType	4	(X/Y/Z)	D:\Share\Shared_Data\Ergonomics\Sit To Stand Pertubation\S3\Perturbed.trc
DataRate	CameraRate	NumFrames	NumMarkers	Units	OrigDataRate	OrigDataStartFrame	OrigNumFrames	
100	100	9	18	m	100	9613	231
Frame#	Time	R_ASIS			R_Pelvis			V_Sacral			L_Pelvis			L_ASIS			Clavical			R_Acromium			L_Acromium			Sternum			Torso			R_Thigh_Med			R_Thigh_Lat			R_Thigh			R_Shank_Med			R_Shank_Lat			R_Shank			R_Heel			R_Toe			
		X1	Y1	Z1	X2	Y2	Z2	X3	Y3	Z3	X4	Y4	Z4	X5	Y5	Z5	X6	Y6	Z6	X7	Y7	Z7	X8	Y8	Z8	X9	Y9	Z9	X10	Y10	Z10	X11	Y11	Z11	X12	Y12	Z12	X13	Y13	Z13	X14	Y14	Z14	X15	Y15	Z15	X16	Y16	Z16	X17	Y17	Z17	X18	Y18	Z18	

9613	96.12	0.42416998	0.94674939	0.15190862	0.31172675	0.94808142	0.19729556	0.21098311	0.9678009	0.0036710262	0.33488437	0.95579205	-0.19433601	0.43823944	0.93725415	-0.13220753	0.38775464	1.3740291	0.010068086	0.32575037	1.4206621	0.18017442	0.34137314	1.4328671	-0.14568474	0.41991843	1.3002588	0.013175894	0.39695572	1.3634639	-0.05481089	0.36050821	0.46168881	0.044230431	0.34524472	0.45544296	0.15219067	0.43907889	0.65683752	0.11171269	0.30378885	0.10454587	0.091676682	0.29100214	0.094470802	0.17296352	0.28887695	0.28464859	0.17844653	0.23163116	0.049208687	0.13093715	0.45067566	0.054247959	0.11517087
9614	96.13	0.42429556	0.9466994	0.15179974	0.31193478	0.94828223	0.19728052	0.21127834	0.96796002	0.0033668954	0.33524512	0.95592633	-0.19464478	0.43846011	0.93713837	-0.13234338	0.38829025	1.3739769	0.010125377	0.32612158	1.4206708	0.18011377	0.34231458	1.4330214	-0.14568697	0.42031073	1.3001176	0.013305204	0.39773547	1.3634104	-0.054636604	0.36054672	0.46167661	0.044214645	0.34517886	0.45549139	0.15216855	0.43906625	0.6568139	0.11173735	0.3039819	0.10453783	0.091703529	0.29098813	0.094442497	0.17297392	0.28883347	0.28469653	0.17842557	0.23166025	0.049350422	0.13101236	0.45071039	0.054221695	0.11519511
9615	96.14	0.4243812	0.94666174	0.15171506	0.31201288	0.94843024	0.19735106	0.21149368	0.96815179	0.0031101618	0.33547656	0.95605359	-0.19485776	0.43860831	0.93706079	-0.13246367	0.38880231	1.3739576	0.010182772	0.32652188	1.4207144	0.18005489	0.34327872	1.4331902	-0.14568398	0.42068164	1.30003	0.013449349	0.39851132	1.3633994	-0.054458538	0.36067252	0.46165262	0.044188564	0.34518097	0.45554126	0.15210988	0.43905472	0.65682855	0.11174297	0.30414709	0.10453229	0.091723129	0.29098203	0.094423508	0.17298302	0.28882745	0.28474518	0.17839717	0.23169133	0.049538361	0.13112497	0.45074258	0.054199615	0.11521727
9616	96.15	0.42442679	0.94663184	0.15164891	0.31195264	0.94851917	0.19750594	0.21162253	0.96838177	0.0028989599	0.3355845	0.9561626	-0.19497632	0.43869119	0.93701764	-0.1325706	0.38928308	1.3739641	0.010238997	0.32693726	1.4207865	0.18000049	0.34424829	1.4333666	-0.14566873	0.42103513	1.2999893	0.013597255	0.39926831	1.3634232	-0.054280193	0.36084845	0.46161639	0.044146729	0.34523209	0.45559268	0.15202306	0.43903433	0.6568703	0.11171672	0.30427423	0.1045295	0.091735802	0.29099103	0.094410461	0.172994	0.28885287	0.28479147	0.17836206	0.23172299	0.049768894	0.13127461	0.45077048	0.054182545	0.1152354
9617	96.16	0.4244317	0.94660327	0.15159486	0.31176593	0.94855042	0.19770967	0.21166615	0.96864526	0.0027299373	0.33558432	0.95624487	-0.19501414	0.43871759	0.93700018	-0.1326692	0.38973196	1.3739862	0.010296389	0.32735626	1.4208792	0.17995207	0.34520786	1.4335422	-0.14563402	0.42137537	1.2999867	0.013741319	0.3999921	1.3634735	-0.054104557	0.36104388	0.46156772	0.044092815	0.34530875	0.45564645	0.15192392	0.4389993	0.65692664	0.11165953	0.30436066	0.10453012	0.091742088	0.29101648	0.094401627	0.1730076	0.28889468	0.28483231	0.17831976	0.23175368	0.05002298	0.13144801	0.45079279	0.054170712	0.1152482
9618	96.17	0.42439456	0.94657019	0.15154637	0.31148502	0.94853094	0.19788927	0.21163263	0.96892871	0.0025979166	0.33549896	0.95629657	-0.19499411	0.43869818	0.9369964	-0.13276544	0.3901572	1.3740132	0.010360192	0.32776999	1.420983	0.17991034	0.3461398	1.4337107	-0.14557756	0.42170618	1.3000116	0.01387789	0.40067355	1.3635414	-0.0539338	0.3612374	0.46150726	0.044034721	0.34538705	0.455702	0.15182718	0.43894498	0.65698566	0.11158455	0.30440912	0.10453437	0.091741776	0.29105374	0.094397812	0.17302145	0.28893369	0.2848656	0.17826898	0.23178098	0.050257839	0.13161209	0.45080881	0.054164021	0.1152553
9619	96.18	0.42431378	0.9465274	0.15149791	0.31114603	0.94847113	0.19798819	0.21153557	0.9692132	0.0024951313	0.33535513	0.95631873	-0.19494382	0.43864478	0.93699377	-0.13286432	0.39057104	1.3740356	0.010435491	0.32817181	1.4210867	0.17987527	0.34702435	1.4338665	-0.145504	0.42203006	1.3000507	0.014006863	0.40131238	1.3636176	-0.053767391	0.36141101	0.46144272	0.043978241	0.34544675	0.4557576	0.15174162	0.43886716	0.65703857	0.1115125	0.30442365	0.10454122	0.091733345	0.29109528	0.094399612	0.17303064	0.28895233	0.28489014	0.17820882	0.2318022	0.050419483	0.13172372	0.45081833	0.054162064	0.11525738
9620	96.19	0.42418857	0.94647205	0.15144592	0.31076691	0.94838312	0.19802632	0.21139261	0.96947772	0.002411006	0.33517917	0.9563161	-0.1948913	0.4385683	0.93698132	-0.13296867	0.39098346	1.3740486	0.010524454	0.32855737	1.4211759	0.17984706	0.34784647	1.4340056	-0.14542044	0.42234641	1.3000881	0.014130453	0.40191852	1.3636923	-0.053600655	0.36154376	0.46139313	0.043924809	0.34547479	0.45581052	0.15167123	0.43876291	0.65708008	0.11146554	0.30440829	0.10454873	0.091715904	0.29113336	0.094407097	0.17303078	0.28893881	0.28490533	0.17813976	0.23181628	0.050498566	0.13177589	0.45082166	0.054164093	0.11525582
9621	96.2	0.42401965	0.94640338	0.15138966	0.31034967	0.94828394	0.19805763	0.21122279	0.9697019	0.0023329048	0.33499393	0.95629584	-0.19486049	0.43847684	0.93695197	-0.13307877	0.3913988	1.3740498	0.01062665	0.32892612	1.4212393	0.17982706	0.34860355	1.4341226	-0.14533044	0.42265192	1.300109	0.01425172	0.40250824	1.3637572	-0.053426128	0.36162289	0.46137643	0.043876289	0.34546658	0.45585849	0.15161763	0.43863174	0.65710846	0.11146153	0.30437231	0.10455398	0.091693306	0.29116376	0.094419655	0.17302216	0.28888956	0.28491113	0.17806444	0.2318252	0.050566242	0.1318275	0.45081967	0.054169155	0.11525249
